<svg class="icon" viewBox="0 0 1024 1024" xmlns="http://www.w3.org/2000/svg" width="200" height="200"><defs><style/></defs><path d="M119.893 602.453L240.64 481.707l107.947-21.334c137.386-186.88 400.213-280.32 495.36-280.32 0 95.147-93.44 357.974-280.32 495.36L542.293 783.36 421.547 904.107l-30.294-150.614c-60.16 0-60.16 0-90.453-30.293-30.293-30.293-30.293-30.293-30.293-90.453l-150.614-30.294M240.64 723.2l60.16 60.16-113.493 113.92H126.72v-60.587L240.64 723.2m-60.587-60.16l52.907 7.253L128 774.827V714.24l52.053-51.2m173.654 128l7.253 52.907L309.76 896h-60.587l104.534-104.96m200.96-385.707c-35.414 0-64 28.587-64 64 0 35.414 28.586 64 64 64 35.413 0 64-28.586 64-64 0-35.413-28.587-64-64-64z"/></svg>